<?xml version="1.0" standalone="no"?>
<!DOCTYPE svg PUBLIC "-//W3C//DTD SVG 20010904//EN"
 "http://www.w3.org/TR/2001/REC-SVG-20010904/DTD/svg10.dtd">
<svg version="1.0" xmlns="http://www.w3.org/2000/svg"
 width="512.000000pt" height="512.000000pt" viewBox="0 0 512.000000 512.000000"
 preserveAspectRatio="xMidYMid meet">
<metadata>
Created by potrace 1.14, written by Peter Selinger 2001-2017
</metadata>
<g transform="translate(0.000000,512.000000) scale(0.100000,-0.100000)"
fill="#000000" stroke="none">
<path d="M2410 4725 c-213 -47 -384 -139 -538 -289 -273 -264 -373 -636 -261
-970 49 -146 103 -234 217 -349 159 -162 343 -239 572 -239 134 0 230 22 345
77 108 52 183 117 254 219 145 210 170 418 75 615 -40 83 -153 192 -227 219
-129 49 -309 54 -390 12 -97 -51 -214 -179 -238 -260 -14 -45 0 -91 35 -115
33 -24 55 -18 109 31 103 92 203 121 311 90 76 -22 99 -57 93 -138 -9 -112
-86 -231 -177 -278 -100 -51 -256 -62 -360 -25 -233 82 -324 401 -190 665 106
209 330 340 580 340 110 0 208 -23 315 -75 204 -98 349 -277 417 -511 33 -113
33 -323 0 -438 -48 -168 -129 -306 -247 -421 -126 -123 -275 -198 -459 -230
-163 -28 -300 -17 -676 55 -344 65 -412 74 -560 67 -248 -11 -446 -75 -652
-213 -498 -331 -686 -963 -438 -1470 140 -287 387 -494 705 -591 83 -25 104
-27 265 -27 198 -1 247 8 386 74 204 95 349 236 450 440 72 143 89 220 89 395
-1 138 -3 156 -29 230 -41 119 -80 181 -170 270 -94 92 -168 134 -296 166 -74
19 -103 21 -230 16 -223 -8 -345 -50 -436 -150 -102 -111 -158 -281 -138 -420
22 -151 87 -237 232 -309 72 -36 93 -42 166 -46 94 -5 141 6 187 45 42 36 59
74 59 133 0 94 -44 151 -175 223 -101 56 -103 71 -11 75 136 6 281 -61 323
-150 51 -106 50 -251 -1 -364 -33 -72 -124 -162 -201 -199 -51 -24 -75 -30
-160 -33 -119 -5 -192 11 -311 68 -187 90 -298 215 -364 410 -30 90 -38 267
-16 370 48 224 233 463 438 563 155 76 312 104 497 86 323 -30 577 -188 742
-461 66 -109 116 -235 179 -456 64 -226 94 -310 141 -405 87 -173 254 -367
399 -464 213 -142 421 -203 695 -203 221 0 405 39 567 121 274 138 492 416
580 742 32 115 32 364 0 479 -79 291 -266 525 -517 651 -219 109 -480 131
-692 58 -117 -40 -186 -84 -279 -177 -64 -63 -90 -98 -123 -165 -65 -132 -76
-189 -75 -374 1 -144 4 -169 28 -250 15 -49 41 -114 58 -144 66 -115 203 -214
335 -242 35 -7 97 -9 156 -6 122 7 181 33 277 124 120 112 189 241 175 328
-11 75 -71 180 -149 261 -67 69 -74 74 -114 74 -59 0 -108 -23 -132 -62 -29
-48 -25 -71 20 -123 108 -125 113 -232 14 -276 l-46 -21 -64 32 c-35 17 -78
48 -96 70 -44 51 -78 148 -85 241 -5 67 -3 83 19 130 51 110 162 187 306 210
198 33 362 -61 461 -265 86 -176 118 -411 71 -515 -93 -203 -366 -418 -614
-481 -279 -71 -556 62 -777 373 -60 83 -128 224 -155 317 -15 51 -19 97 -19
210 1 137 2 150 33 240 63 181 139 290 388 555 239 254 293 324 369 475 86
170 125 338 125 535 0 147 -18 261 -66 415 -67 213 -159 366 -308 508 -144
136 -301 220 -526 279 -120 32 -365 41 -470 18z"/>
</g>
</svg>
